PathFileType	4	(X/Y/Z)	..\data\2014001\dynamic\2014001_C5_01.trc
DataRate	CameraRate	NumFrames	NumMarkers	Units	OrigDataRate	OrigDataStartFrame	OrigNumFrames
100.000000	100.000000	4	52	mm	100.000000	31	125
Frame#	Time	L_IAS			L_IPS			R_IPS			R_IAS			L_FTC			L_FLE			L_FME			L_FAX			L_TTC			L_FAL			L_TAM			L_FCC			L_FM1			L_FM2			L_FM5			R_FTC			R_FLE			R_FME			R_FAX			R_TTC			R_FAL			R_TAM			R_FCC			R_FM1			R_FM2			R_FM5			CV7			TV10			SXS			SJN			L_SIA			L_SRS			L_SAA			L_SAE			L_HLE			L_HME			L_UOA			L_RSP			L_UHE			L_HM2			L_HM5			R_SIA			R_SRS			R_SAA			R_SAE			R_HLE			R_HME			R_UOA			R_RSP			R_UHE			R_HM2			R_HM5			
		X1	Y1	Z1	X2	Y2	Z2	X3	Y3	Z3	X4	Y4	Z4	X5	Y5	Z5	X6	Y6	Z6	X7	Y7	Z7	X8	Y8	Z8	X9	Y9	Z9	X10	Y10	Z10	X11	Y11	Z11	X12	Y12	Z12	X13	Y13	Z13	X14	Y14	Z14	X15	Y15	Z15	X16	Y16	Z16	X17	Y17	Z17	X18	Y18	Z18	X19	Y19	Z19	X20	Y20	Z20	X21	Y21	Z21	X22	Y22	Z22	X23	Y23	Z23	X24	Y24	Z24	X25	Y25	Z25	X26	Y26	Z26	X27	Y27	Z27	X28	Y28	Z28	X29	Y29	Z29	X30	Y30	Z30	X31	Y31	Z31	X32	Y32	Z32	X33	Y33	Z33	X34	Y34	Z34	X35	Y35	Z35	X36	Y36	Z36	X37	Y37	Z37	X38	Y38	Z38	X39	Y39	Z39	X40	Y40	Z40	X41	Y41	Z41	X42	Y42	Z42	X43	Y43	Z43	X44	Y44	Z44	X45	Y45	Z45	X46	Y46	Z46	X47	Y47	Z47	X48	Y48	Z48	X49	Y49	Z49	X50	Y50	Z50	X51	Y51	Z51	X52	Y52	Z52	

32	0.31	272.0855102539063	867.1561279296877	-353.1230773925782	97.6491622924805	925.2363891601565	-287.5858764648438	94.38227844238283	914.7451171875002	-195.4611968994141	264.6093750000001	864.642028808594	-120.1819305419922	195.9618072509766	790.1829833984377	-417.6614685058595	148.0068817138672	429.8685302734376	-359.6394958496094	157.9180450439453	430.6959228515626	-244.3641357421876	119.1607208251953	370.2897949218751	-361.3434753417969	172.1736602783203	346.9840698242188	-307.3677062988282	39.78262329101563	60.32601165771486	-299.4193725585938	58.65483474731447	74.27646636962892	-211.5814056396485	-9.778659820556642	23.25638198852539	-255.0081329345704	172.0906829833985	32.04930877685548	-226.5854797363282	179.6582489013672	39.08773422241212	-286.8578796386719	129.349349975586	21.18190383911133	-332.9385681152344	170.1308898925782	771.2058715820315	-65.24707031250001	347.3133239746094	463.4595947265626	-79.38320159912111	382.8830871582032	458.288543701172	-193.8637390136719	336.6047058105469	399.1513671875001	-75.96668243408205	408.301727294922	397.0399169921876	-115.0208435058594	319.4590454101563	89.2314910888672	-113.863754272461	372.4542846679688	103.8274612426758	-188.8684387207032	296.6589355468751	37.47681427001954	-175.4389343261719	475.747039794922	64.81497955322267	-138.71337890625	459.0865173339845	78.63750457763673	-84.99956512451173	402.3430480957032	56.8285369873047	-57.60315704345705	109.7810134887696	1370.88818359375	-225.6382141113282	71.25973510742189	1133.163208007813	-229.9799346923829	305.6345214843751	1167.250732421875	-225.0421752929688	249.359115600586	1324.837158203125	-223.4103088378907	72.19615173339845	1180.301391601563	-334.7332763671876	75.38111114501955	1313.680541992188	-321.8031005859376	168.5780029296875	1314.358032226563	-419.7650756835939	202.5532989501954	1328.562744140625	-401.9653930664064	234.6807861328126	1064.438720703125	-512.5200195312501	204.6682739257813	1011.951843261719	-452.3412170410157	211.0260009765626	1014.644165039063	-505.5676574707032	420.4655761718751	910.6624755859377	-427.2898254394532	408.3369750976564	886.6848144531252	-502.2593688964845	496.0695190429689	870.909851074219	-416.8243408203126	452.7232971191407	820.4213867187502	-495.2040100097657	61.22242736816408	1178.425903320313	-117.4503250122071	77.85437774658205	1301.35205078125	-137.2669067382813	150.9814453125	1313.6669921875	-34.75096511840821	199.3466186523438	1320.8916015625	-41.84343338012696	123.1483535766602	1028.773071289063	37.44040298461915	95.99248504638673	1013.532409667969	-38.81759643554688	90.68121337890626	1008.17724609375	8.604780197143556	202.2844543457032	808.115173339844	15.37592124938965	143.9463806152344	810.6072387695315	73.49220275878908	231.8503570556641	723.6917114257814	41.44198226928712	133.7652740478516	731.4042358398439	75.71208953857423	
33	0.32	290.5412902832032	863.875427246094	-354.6831665039063	116.9299011230469	922.838806152344	-286.6178283691407	115.3775405883789	912.3360595703127	-194.2968292236329	286.9477844238282	863.2432250976565	-121.7871398925782	211.896224975586	787.5312500000002	-418.1619262695314	151.7645416259766	430.0439453125001	-359.5673217773438	162.4048004150391	430.5716552734376	-244.6269531250001	122.238151550293	370.9843750000001	-361.1875610351563	175.0054779052735	346.9481811523438	-307.3406677246094	40.55015945434571	61.10856246948244	-298.8345031738282	59.59732818603517	75.16149139404298	-210.9979400634766	-9.43693256378174	24.78969764709473	-254.4077606201172	173.3502197265625	30.89585876464844	-226.0727691650391	181.3146514892578	38.28331756591798	-286.8332824707032	129.8356018066407	21.05835914611817	-333.1232299804688	193.6252899169922	770.2657470703127	-64.03649139404298	372.6618041992188	463.2229003906251	-80.14580535888673	409.1029052734376	460.2182006835939	-194.5252532958985	366.5086364746094	397.9518127441407	-77.0448684692383	437.9548950195314	401.3560791015626	-115.8405227661133	378.5447082519532	87.57894897460939	-114.911605834961	429.6406860351564	106.9846343994141	-189.8079833984375	360.2447204589844	34.28115463256837	-177.0750427246094	536.3398437500001	75.34413146972658	-141.3277282714844	519.1237182617189	87.47537231445314	-87.5375442504883	464.6485290527345	61.2937469482422	-59.60951232910158	131.5001983642578	1368.907592773438	-225.1423645019532	92.52770233154298	1131.343383789063	-229.7563476562501	326.8480224609376	1164.700073242188	-226.189437866211	271.0914001464844	1322.591186523438	-223.6694946289063	93.23510742187501	1178.784301757813	-334.8744506835938	96.44049835205081	1312.242065429688	-321.5982055664063	189.7781829833985	1312.854736328125	-419.7377014160157	223.5611114501954	1327.119140625	-401.6865539550782	261.3254699707032	1064.381469726563	-512.8414306640626	232.8368682861329	1010.59912109375	-452.5932617187501	239.8213653564454	1013.039123535156	-506.1780700683595	453.8384399414064	924.528503417969	-420.3612670898439	445.690887451172	898.3179931640627	-494.991668701172	531.8150634765626	891.5439453125002	-406.9210815429689	495.0864257812501	835.923522949219	-485.3092651367189	83.24742126464845	1176.557250976563	-117.4167175292969	100.4098205566407	1299.37158203125	-136.8099365234375	174.0722351074219	1311.794799804688	-34.64208221435548	222.5541076660157	1318.501586914063	-41.77870559692384	141.0228576660157	1028.558227539063	38.57564544677735	113.9359436035157	1013.275451660156	-37.67872619628907	108.4804840087891	1008.958251953125	9.700063705444338	212.1509552001954	805.3735351562502	20.84951782226563	153.2081451416016	810.9710693359377	78.17732238769533	237.9044189453126	720.0264282226564	48.4607391357422	139.7276458740235	732.1007080078126	81.3146438598633	
34	0.33	309.0620117187501	860.217468261719	-356.1764221191407	136.3916625976563	919.7207641601565	-285.2744445800782	136.4239807128907	909.1992187500002	-192.9213562011719	309.2763977050782	861.1602783203127	-123.2729873657227	227.7427673339844	784.6807861328127	-418.4659423828126	156.3540344238282	430.373016357422	-359.1912841796876	167.8780059814453	430.436737060547	-244.5936431884766	126.0905685424805	371.9058227539063	-360.7154846191407	178.6441802978516	346.9662780761719	-307.0842895507813	41.29973602294923	62.32141113281251	-298.0596923828126	60.64015960693361	76.33135986328126	-210.225082397461	-9.161295890808107	26.83655548095704	-253.5862884521485	174.689926147461	29.72780799865723	-225.5077056884766	183.0088653564453	37.48139572143555	-286.7593078613282	130.2820892333985	20.9620590209961	-333.1286926269532	217.1685485839844	768.4233398437502	-62.9117774963379	397.366668701172	461.9046020507814	-80.94712829589845	434.5428466796876	460.8928527832032	-195.4389343261719	395.6326293945314	396.1730346679689	-78.15039062500001	466.5431518554689	404.6746215820314	-116.821891784668	435.424041748047	87.18595123291017	-115.9683074951172	484.2356872558595	111.0458984375	-190.862548828125	421.267059326172	32.65124130249024	-178.6795806884766	594.0310058593751	86.4810028076172	-144.2504272460938	576.6062011718751	96.96960449218753	-90.33660888671876	524.5781250000001	66.69917297363283	-61.77753067016603	153.2635498046875	1366.42431640625	-224.7008514404297	113.8072357177735	1128.951782226563	-229.5231323242188	348.0941467285157	1161.584838867188	-227.387191772461	292.9012145996094	1319.764282226563	-223.9983520507813	114.340446472168	1176.65283203125	-334.9828796386719	117.5871200561524	1310.236328125	-321.4509582519532	211.056137084961	1310.768676757813	-419.8090209960939	244.6519165039063	1325.135131835938	-401.4839477539064	287.8927001953126	1063.815551757813	-513.2163696289064	261.0245056152344	1008.836669921875	-452.7282714843751	268.6102600097657	1011.019836425781	-506.6571044921876	485.8119201660157	937.893249511719	-413.9350891113282	481.6608886718751	909.8663330078127	-488.116668701172	565.3516235351564	911.7023925781252	-397.7575988769532	535.5736694335939	851.736999511719	-475.9324951171876	105.2644348144532	1174.1337890625	-117.4396591186524	122.9474182128907	1296.9306640625	-136.3882446289063	197.2162628173829	1309.363525390625	-34.53808975219727	245.8031921386719	1315.589477539063	-41.7639389038086	159.5040893554688	1027.745849609375	39.89671325683594	132.3714599609375	1012.326599121094	-36.3182487487793	126.8825836181641	1009.038696289063	11.01783752441406	223.3388977050782	802.7011718750002	26.23655319213868	164.024887084961	811.147644042969	82.80918121337892	245.6595306396485	716.8249511718751	55.34995269775392	147.6241149902344	732.7534179687501	86.85916137695314	
35	0.34	327.7249145507813	856.3475341796877	-357.6118164062501	156.1287536621094	916.035339355469	-283.5453796386719	157.5809783935547	905.4818115234377	-191.3309936523438	331.6360473632813	858.4989013671877	-124.6222305297852	243.5829772949219	781.7779541015627	-418.5619201660157	161.9697570800782	430.8399353027345	-358.5806579589844	174.6098022460938	430.2434692382814	-244.3384399414063	130.8812866210938	373.0442810058594	-359.9819946289063	183.2640686035157	346.9953918457032	-306.6995849609376	42.02290344238282	64.05062103271486	-297.1235961914063	61.8168182373047	77.85083770751955	-209.3101806640626	-8.934286117553713	29.52445983886719	-252.5474395751954	176.0030670166016	28.57525062561036	-224.9274902343751	184.6005096435547	36.67553329467774	-286.6449584960938	130.5996246337891	20.86075019836426	-332.9374694824219	240.7830810546876	765.7778320312501	-61.90588760375978	421.6137695312501	459.717498779297	-81.82860565185548	459.2905273437501	460.471893310547	-196.6397247314454	424.012908935547	393.9713745117189	-79.31506347656251	494.1831359863282	407.014862060547	-118.0304260253907	489.2562866210939	87.72057342529298	-117.0598373413086	535.5312500000001	115.5413589477539	-192.0646514892579	478.7329406738282	32.20571517944337	-180.2318572998047	648.1331787109376	97.55655670166018	-147.4669036865235	630.8300170898439	106.5229187011719	-93.39949798583986	581.2919921875001	72.53269195556642	-64.12339782714845	175.0409851074219	1363.553100585938	-224.2991180419922	135.1050262451172	1126.099853515625	-229.2397460937501	369.3711242675782	1158.04736328125	-228.5771179199219	314.7590026855469	1316.489624023438	-224.3640441894532	135.4974670410157	1174.009887695313	-335.0182495117188	138.8038482666016	1307.759155273438	-321.3265991210938	232.3891296386719	1308.19482421875	-419.9422912597657	265.8088989257813	1322.699340820313	-401.3278808593751	314.3004150390626	1062.8134765625	-513.6365356445314	289.1237487792969	1006.748779296875	-452.7739257812501	297.2881774902344	1008.664306640625	-507.019012451172	516.4061889648439	950.5710449218752	-408.0830383300782	516.1738281250001	921.1325683593752	-481.7290039062501	596.7637939453126	931.0939941406252	-389.4642333984376	574.0895385742189	867.550231933594	-467.1990051269532	127.2394180297852	1171.266357421875	-117.4876098632813	145.4269409179688	1294.130981445313	-135.9821166992188	220.3466033935547	1306.495727539063	-34.41671752929688	269.0258178710938	1312.296630859375	-41.77021789550782	178.6316070556641	1026.396850585938	41.35509109497071	151.3589630126953	1010.760131835938	-34.79658508300782	145.9174194335938	1008.474060058594	12.49946212768555	235.9821929931641	800.046569824219	31.50635337829591	176.4575958251953	811.0614013671877	87.35363006591798	255.2734680175782	713.9622802734376	62.1101417541504	157.520248413086	733.2497558593751	92.33806610107423	
